<?xml version="1.0" encoding="UTF-8"?>
<svg width="100pt" height="100pt" version="1.1" viewBox="0 0 100 100" xmlns="http://www.w3.org/2000/svg">
 <path d="m85.855 82.828c6.1406 0.3125 11.02 5.3867 11.02 11.602 0 1.3516-1.0938 2.4453-2.4453 2.4453h-26.359l-0.25-0.011719c-1.2344-0.125-2.1953-1.168-2.1953-2.4336 0-6.418 5.1992-11.617 11.617-11.617h8.0156zm-8.6133 3.1094c-4.4609 0-8.1172 3.4414-8.4648 7.8125h24.945c-0.34766-4.3711-4.0039-7.8125-8.4648-7.8125z" fill-rule="evenodd"/>
 <path d="m11.395 46.551c0.60938-0.60938 1.6016-0.60938 2.2109 0l6.25 6.25c0.60938 0.60938 0.60938 1.6016 0 2.2109s-1.6016 0.60938-2.2109 0l-3.4492-3.4531c0.38672 4.6758 1.6523 9.2422 3.7344 13.465 2.543 5.1602 6.2422 9.6641 10.805 13.164s9.8711 5.9062 15.512 7.0312c5.6406 1.1211 11.465 0.92969 17.023-0.55859 0.83203-0.22266 1.6875 0.26953 1.9141 1.1055 0.22266 0.83203-0.27344 1.6914-1.1055 1.9141-6.0195 1.6133-12.328 1.8164-18.441 0.60156-6.1094-1.2148-11.863-3.8203-16.805-7.6133-4.9453-3.793-8.9492-8.6758-11.703-14.262-2.332-4.7266-3.7109-9.8516-4.0859-15.086l-3.6875 3.6914c-0.60938 0.60938-1.6016 0.60938-2.2109 0s-0.60938-1.6016 0-2.2109z"/>
 <path d="m81.25 62.5c5.1758 0 9.375 4.1992 9.375 9.375s-4.1992 9.375-9.375 9.375-9.375-4.1992-9.375-9.375 4.1992-9.375 9.375-9.375zm0 3.125c-3.4531 0-6.25 2.7969-6.25 6.25s2.7969 6.25 6.25 6.25 6.25-2.7969 6.25-6.25-2.7969-6.25-6.25-6.25z" fill-rule="evenodd"/>
 <path d="m50 42.188c3.4531 0 6.25 2.7969 6.25 6.25s-2.7969 6.25-6.25 6.25-6.25-2.7969-6.25-6.25 2.7969-6.25 6.25-6.25zm0 3.125c-1.7266 0-3.125 1.3984-3.125 3.125s1.3984 3.125 3.125 3.125 3.125-1.3984 3.125-3.125-1.3984-3.125-3.125-3.125z" fill-rule="evenodd"/>
 <path d="m53.594 31.25c0.86328 0 1.5625 0.69922 1.5625 1.5625v1.8242c0 0.63672 0.39062 1.2031 0.96094 1.4883 0.51562 0.25391 1.0117 0.54297 1.4883 0.85938 0.46484 0.30859 1.0469 0.39062 1.5547 0.19141l0.21094-0.10156 1.5859-0.91406c0.74609-0.42969 1.6992-0.17578 2.1328 0.57422l3.5938 6.2188c0.42969 0.75 0.17578 1.707-0.57422 2.1367l-1.582 0.91406c-0.55078 0.31641-0.84375 0.9375-0.80469 1.5703 0.019532 0.28516 0.027344 0.57422 0.027344 0.86328s-0.007812 0.57422-0.027344 0.85938c-0.039062 0.63672 0.25391 1.2578 0.80469 1.5742l1.5859 0.91406c0.74609 0.43359 1 1.3867 0.57031 2.1367l-3.5938 6.2188c-0.40625 0.70312-1.2695 0.97266-1.9922 0.64844l-0.14062-0.074218-1.5859-0.91406c-0.55078-0.32031-1.2383-0.26562-1.7695 0.089844-0.47266 0.31641-0.96875 0.60156-1.4844 0.85938-0.57031 0.28516-0.96094 0.85156-0.96094 1.4844v1.8281c0 0.86328-0.69922 1.5625-1.5625 1.5625h-7.1875c-0.86328 0-1.5625-0.69922-1.5625-1.5625v-1.8281c0-0.55469-0.29688-1.0586-0.75391-1.3633l-0.20703-0.12109c-0.51172-0.25391-1.0078-0.54297-1.4844-0.85938-0.53125-0.35547-1.2188-0.41016-1.7695-0.089844l-1.582 0.91406-0.14062 0.070312c-0.72266 0.32812-1.5898 0.058594-1.9922-0.64453l-3.5938-6.2188c-0.43359-0.75-0.17578-1.7031 0.57031-2.1367l1.582-0.91406c0.48047-0.27734 0.76953-0.78906 0.80469-1.3359l0.003906-0.23828c-0.019531-0.28516-0.03125-0.57031-0.03125-0.85938 0-0.14453 0.003906-0.28906 0.007812-0.43359l0.023438-0.42969c0.039062-0.63281-0.25781-1.2539-0.80859-1.5703l-1.582-0.91406c-0.74609-0.43359-1-1.3867-0.57031-2.1367l3.5938-6.2188c0.42969-0.75 1.3867-1.0039 2.1328-0.57422l1.582 0.91406c0.48438 0.27734 1.0703 0.26953 1.5625 0.027343l0.20703-0.11719c0.47266-0.31641 0.97266-0.60547 1.4844-0.86328 0.5-0.24609 0.86328-0.71094 0.94531-1.25l0.015625-0.23438v-1.8242c0-0.86328 0.69922-1.5625 1.5625-1.5625zm-5.625 3.3867c0 1.9531-1.1836 3.5352-2.6914 4.2852-0.39844 0.19531-0.78125 0.41797-1.1484 0.66406-1.4062 0.93359-3.3672 1.1719-5.0625 0.19531l-0.22656-0.13281-2.0312 3.5156 0.22656 0.13281c1.6914 0.97656 2.4688 2.793 2.3633 4.4766-0.015626 0.22266-0.023438 0.44141-0.023438 0.66406 0 0.21875 0.007812 0.44141 0.023438 0.66016 0.10547 1.6875-0.67188 3.5039-2.3594 4.4805l-0.23437 0.13281 2.0312 3.5156 0.23047-0.13281c1.5859-0.91797 3.4141-0.76562 4.793 0.027344l0.83203 0.51562c0.19141 0.11328 0.38672 0.21875 0.58594 0.31641 1.5078 0.75 2.6914 2.3281 2.6914 4.2812v0.26562h4.0625v-0.26562c0-1.9531 1.1875-3.5312 2.6914-4.2812 0.39844-0.19922 0.78125-0.41797 1.1484-0.66406l0.26953-0.16797c1.2891-0.74219 2.9648-0.92188 4.4727-0.19531l0.32031 0.16797 0.23047 0.13281 2.0312-3.5156-0.23047-0.13281c-1.6914-0.97656-2.4688-2.793-2.3594-4.4844l0.019531-0.65625c0-0.21875-0.003906-0.4375-0.019531-0.66016-0.10938-1.6875 0.66797-3.5039 2.3594-4.4805l0.23047-0.13281-2.0312-3.5156-0.23047 0.13281c-1.6953 0.97656-3.6562 0.73828-5.0586-0.19531-0.37109-0.24609-0.75391-0.46875-1.1523-0.66406-1.5039-0.75-2.6914-2.3281-2.6914-4.2852v-0.26172h-4.0625z" fill-rule="evenodd"/>
 <path d="m39.484 9.1953c6.0195-1.6133 12.328-1.8164 18.441-0.60156 6.1094 1.2148 11.863 3.8203 16.805 7.6133 4.9453 3.793 8.9492 8.6758 11.703 14.262 2.332 4.7266 3.7109 9.8477 4.082 15.086l3.6914-3.6914c0.60938-0.60938 1.6016-0.60938 2.2109 0s0.60938 1.6016 0 2.2109l-6.25 6.25c-0.26953 0.26562-0.60547 0.41797-0.95703 0.44922-0.097657 0.007812-0.19922 0.007812-0.29688 0-0.35156-0.03125-0.6875-0.18359-0.95703-0.44922l-6.25-6.25c-0.60938-0.60938-0.60938-1.6016 0-2.2109s1.6016-0.60938 2.2109 0l3.4492 3.4492c-0.39063-4.6719-1.6523-9.2383-3.7344-13.461-2.543-5.1602-6.2422-9.6641-10.805-13.164s-9.8711-5.9062-15.512-7.0312c-5.6406-1.1211-11.465-0.92969-17.023 0.55859-0.83203 0.22266-1.6875-0.26953-1.9141-1.1055-0.22266-0.83203 0.27344-1.6914 1.1055-1.9141z"/>
 <path d="m24.918 23.453c6.1406 0.3125 11.02 5.3867 11.02 11.602 0 1.3516-1.0938 2.4453-2.4453 2.4453h-26.359l-0.25-0.011719c-1.2344-0.125-2.1953-1.168-2.1953-2.4336 0-6.418 5.1992-11.617 11.617-11.617h8.0156zm-8.6133 3.1094c-4.4609 0-8.1172 3.4414-8.4648 7.8125h24.945c-0.34766-4.3711-4.0039-7.8125-8.4648-7.8125z" fill-rule="evenodd"/>
 <path d="m20.312 3.125c5.1758 0 9.375 4.1992 9.375 9.375s-4.1992 9.375-9.375 9.375-9.375-4.1992-9.375-9.375 4.1992-9.375 9.375-9.375zm0 3.125c-3.4531 0-6.25 2.7969-6.25 6.25s2.7969 6.25 6.25 6.25 6.25-2.7969 6.25-6.25-2.7969-6.25-6.25-6.25z" fill-rule="evenodd"/>
</svg>
