<?xml version="1.0" encoding="UTF-8"?>
<svg width="100pt" height="100pt" version="1.1" viewBox="0 0 100 100" xmlns="http://www.w3.org/2000/svg">
 <path d="m12.5 21.875c0 5.1758 4.1992 9.375 9.375 9.375s9.375-4.1992 9.375-9.375-4.1992-9.375-9.375-9.375-9.375 4.1992-9.375 9.375zm6.2656 15.316c-7.1406-1.4414-12.516-7.75-12.516-15.316 0-8.6289 6.9961-15.625 15.625-15.625s15.625 6.9961 15.625 15.625c0 7.418-5.168 13.625-12.098 15.227 1.168 3.8477 4.7422 6.6484 8.9727 6.6484h31.25c8.6289 0 15.625 6.9961 15.625 15.625v3.4375c7.1328 1.4492 12.5 7.7539 12.5 15.312 0 8.6289-6.9961 15.625-15.625 15.625s-15.625-6.9961-15.625-15.625c0-7.5586 5.3672-13.863 12.5-15.312v-3.4375c0-5.1797-4.1953-9.375-9.375-9.375h-31.25c-3.5156 0-6.7617-1.1641-9.375-3.125v15.625c0 0.10547-0.003906 0.20703-0.015625 0.30859 7.1406 1.4414 12.516 7.75 12.516 15.316 0 8.6289-6.9961 15.625-15.625 15.625s-15.625-6.9961-15.625-15.625c0-7.5664 5.375-13.875 12.516-15.316-0.011719-0.10156-0.015625-0.20312-0.015625-0.30859v-25c0-0.10547 0.003906-0.20703 0.015625-0.30859zm49.984 40.934c0-5.1797 4.1953-9.375 9.375-9.375s9.375 4.1953 9.375 9.375-4.1953 9.375-9.375 9.375-9.375-4.1953-9.375-9.375zm-46.875 9.375c-5.1758 0-9.375-4.1953-9.375-9.375s4.1992-9.375 9.375-9.375 9.375 4.1953 9.375 9.375-4.1992 9.375-9.375 9.375z" fill-rule="evenodd"/>
</svg>
