<?xml version="1.0" encoding="UTF-8"?>
<svg width="100pt" height="100pt" version="1.1" viewBox="0 0 100 100" xmlns="http://www.w3.org/2000/svg">
 <path d="m63.449 22.324c0.50781-0.94141 1.6836-1.2891 2.6211-0.78125 4.3164 2.332 8.1641 5.6328 11.125 9.5508 0.64453 0.85156 0.47656 2.0664-0.37891 2.7109-0.34766 0.26562-0.75781 0.39062-1.1641 0.39062-0.58594 0-1.1641-0.26562-1.5469-0.76953-2.6289-3.4766-6.043-6.4102-9.8789-8.4805-0.94141-0.50781-1.2891-1.6836-0.78125-2.6211zm-41.848 39.48c-0.36328-1.0039-1.4766-1.5234-2.4805-1.1562-1.0039 0.36328-1.5234 1.4766-1.1562 2.4805 1.4492 3.9844 3.6094 7.6328 6.4219 10.836 0.38281 0.4375 0.91797 0.66016 1.457 0.66016 0.45312 0 0.90625-0.15625 1.2773-0.48047 0.80469-0.70312 0.88281-1.9297 0.17969-2.7305-2.4922-2.8438-4.4102-6.0742-5.6953-9.6094zm1.5742-28c0.34766 0.26562 0.75781 0.39062 1.1641 0.39062 0.58594 0 1.1641-0.26562 1.5469-0.76953 2.6328-3.4844 6.0508-6.418 9.875-8.4805 0.94141-0.50781 1.293-1.6797 0.78516-2.6211-0.50781-0.94141-1.6797-1.293-2.6211-0.78516-4.3125 2.3242-8.1602 5.6289-11.129 9.5508-0.64453 0.85156-0.47656 2.0664 0.37891 2.7109zm57.711 26.844c-1.0039-0.36328-2.1133 0.15234-2.4805 1.1562-1.2852 3.5312-3.1992 6.7656-5.6953 9.6055-0.70313 0.80469-0.625 2.0273 0.17969 2.7305 0.36719 0.32031 0.82031 0.48047 1.2773 0.48047 0.53906 0 1.0742-0.22266 1.457-0.66016 2.8125-3.207 4.9727-6.8516 6.4219-10.84 0.36328-1.0039-0.15234-2.1133-1.1562-2.4805zm-11.629 13.605v9.4805c0 3.4531-2.8086 6.2656-6.2617 6.2656h-25.988c-3.4531 0-6.2617-2.8086-6.2617-6.2656v-9.4805c0-6.4336 5.5703-11.664 12.414-11.664h0.41406c-0.83594-0.73828-1.5859-1.6367-2.2305-2.6836-1.5391-2.4961-2.4609-5.8672-2.4609-9.0156 0-6.1289 4.9883-11.109 11.117-11.109s11.113 4.9844 11.113 11.109c0 3.2734-0.92578 6.6133-2.543 9.1523-0.62891 0.98828-1.3516 1.8398-2.1523 2.543h0.42578c6.8438 0 12.414 5.2344 12.414 11.664zm-24.617-16.379c1.3398 2.1758 3.1445 3.2773 5.3633 3.2773 2.1758 0 3.957-1.0703 5.3008-3.1875 1.2148-1.9102 1.9375-4.5547 1.9375-7.0742 0-3.9922-3.2461-7.2383-7.2422-7.2383-3.9922 0-7.2461 3.2461-7.2461 7.2383 0 2.4609 0.70312 5.0703 1.8828 6.9844zm20.746 16.379c0-4.2969-3.832-7.793-8.543-7.793h-13.68c-4.7109 0-8.543 3.4961-8.543 7.793v9.4805c0 1.3203 1.0703 2.3945 2.3906 2.3945h25.988c1.3164 0 2.3906-1.0742 2.3906-2.3945v-9.4805zm16.094-30.98-3.8477 3.8125-1.3477-1.3086c-0.76562-0.74219-1.9922-0.72656-2.7383 0.042968-0.74219 0.76563-0.72656 1.9922 0.042969 2.7383l2.7109 2.6289c0.375 0.36328 0.85938 0.54688 1.3477 0.54688 0.49219 0 0.98437-0.1875 1.3633-0.5625l5.1953-5.1484c0.75781-0.75391 0.76562-1.9766 0.011719-2.7383-0.75391-0.75781-1.9766-0.76562-2.7383-0.011718zm8.5195 3.9453c0 6.1289-4.9844 11.109-11.105 11.109-6.125 0-11.113-4.9844-11.113-11.109 0-6.1289 4.9844-11.105 11.113-11.105 6.1289 0 11.105 4.9805 11.105 11.105zm-3.8711 0c0-3.9883-3.2461-7.2344-7.2344-7.2344s-7.2422 3.2461-7.2422 7.2344 3.2461 7.2383 7.2422 7.2383c3.9922 0 7.2344-3.2461 7.2344-7.2383zm-62.43-3.9453-3.8477 3.8125-1.3477-1.3086c-0.76562-0.74219-1.9922-0.72656-2.7383 0.042968-0.74219 0.76563-0.72656 1.9922 0.042969 2.7383l2.7109 2.6289c0.375 0.36328 0.85938 0.54688 1.3477 0.54688 0.49219 0 0.98437-0.1875 1.3633-0.5625l5.1953-5.1484c0.75781-0.75391 0.76562-1.9766 0.011719-2.7383-0.75391-0.75781-1.9766-0.76562-2.7383-0.011718zm8.5195 3.9453c0 6.1289-4.9844 11.109-11.105 11.109-6.125 0-11.113-4.9844-11.113-11.109 0-6.1289 4.9844-11.105 11.113-11.105 6.1289 0 11.105 4.9805 11.105 11.105zm-3.8711 0c0-3.9883-3.2461-7.2344-7.2344-7.2344s-7.2422 3.2461-7.2422 7.2344 3.2461 7.2383 7.2422 7.2383c3.9922 0 7.2344-3.2461 7.2344-7.2383zm20.41-21.598c0.49219 0 0.98438-0.1875 1.3633-0.5625l5.1953-5.1484c0.75781-0.75391 0.76562-1.9766 0.011719-2.7383-0.75391-0.75781-1.9766-0.76562-2.7383-0.011719l-3.8438 3.8125-1.3477-1.3086c-0.76563-0.74609-1.9922-0.72656-2.7383 0.039063s-0.72656 1.9922 0.039063 2.7383l2.7109 2.6328c0.375 0.36328 0.86328 0.54688 1.3477 0.54688zm-9.8672-4.5117c0-6.1289 4.9844-11.109 11.113-11.109s11.105 4.9844 11.105 11.109c0 6.1289-4.9844 11.109-11.105 11.109-6.125 0-11.113-4.9844-11.113-11.109zm3.8711 0c0 3.9922 3.2461 7.2383 7.2422 7.2383 3.9922 0 7.2344-3.2461 7.2344-7.2383s-3.2461-7.2383-7.2344-7.2383c-3.9883 0-7.2422 3.2461-7.2422 7.2383z"/>
</svg>
